<?xml version="1.0" standalone="no"?><!DOCTYPE svg PUBLIC "-//W3C//DTD SVG 1.1//EN" "http://www.w3.org/Graphics/SVG/1.1/DTD/svg11.dtd"><svg class="icon" width="200px" height="200.00px" viewBox="0 0 1024 1024" version="1.1" xmlns="http://www.w3.org/2000/svg"><path d="M191.015385 710.892308V222.523077c-51.2 0-92.553846 41.353846-92.553847 90.584615v578.953846C98.461538 943.261538 139.815385 984.615385 191.015385 984.615385H649.846154c51.2 0 92.553846-41.353846 92.553846-90.584616H374.153846c-100.430769 0-183.138462 0-183.138461-183.138461z m703.015384-397.784616h-153.6c-51.2 0-92.553846-41.353846-92.553846-90.584615V68.923077c1.969231-15.753846-11.815385-29.538462-29.538461-29.538462H374.153846c-51.2 0-92.553846 41.353846-92.553846 90.584616V708.923077c0 51.2 41.353846 90.584615 92.553846 90.584615h458.830769c51.2 0 92.553846-41.353846 92.553847-90.584615V344.615385c0-17.723077-13.784615-31.507692-31.507693-31.507693z m25.6-128l-141.784615-139.815384c-3.938462-3.938462-7.876923-5.907692-13.784616-5.907693-11.815385 0-21.661538 9.846154-21.661538 21.661539v100.430769c0 33.476923 27.569231 61.046154 61.046154 61.046154h100.430769c11.815385 0 21.661538-9.846154 21.661539-21.661539 0-5.907692-1.969231-9.846154-5.907693-15.753846z" /></svg>