<?xml version="1.0" standalone="no"?><!DOCTYPE svg PUBLIC "-//W3C//DTD SVG 1.1//EN" "http://www.w3.org/Graphics/SVG/1.1/DTD/svg11.dtd"><svg class="icon" width="200px" height="200.00px" viewBox="0 0 1024 1024" version="1.1" xmlns="http://www.w3.org/2000/svg"><path d="M914.285714 708.571429q0 15.428571-5.714286 40.285714t-12 39.142857q-12 28.571429-69.714286 60.571429-53.714286 29.142857-106.285714 29.142857-15.428571 0-30-2t-32.857143-7.142857-27.142857-8.285714-31.714286-11.714286-28-10.285714q-56-20-100-47.428571-73.142857-45.142857-151.142857-123.142857t-123.142857-151.142857q-27.428571-44-47.428571-100-1.714286-5.142857-10.285714-28t-11.714286-31.714286-8.285714-27.142857-7.142857-32.857143-2-30q0-52.571429 29.142857-106.285714 32-57.714286 60.571429-69.714286 14.285714-6.285714 39.142857-12t40.285714-5.714286q8 0 12 1.714286 10.285714 3.428571 30.285714 43.428571 6.285714 10.857143 17.142857 30.857143t20 36.285714 17.714286 30.571429q1.714286 2.285714 10 14.285714t12.285714 20.285714 4 16.285714q0 11.428571-16.285714 28.571429t-35.428571 31.428571-35.428571 30.285714-16.285714 26.285714q0 5.142857 2.857143 12.857143t4.857143 11.714286 8 13.714286 6.571429 10.857143q43.428571 78.285714 99.428571 134.285714t134.285714 99.428571q1.142857 0.571429 10.857143 6.571429t13.714286 8 11.714286 4.857143 12.857143 2.857143q10.285714 0 26.285714-16.285714t30.285714-35.428571 31.428571-35.428571 28.571429-16.285714q8 0 16.285714 4t20.285714 12.285714 14.285714 10q14.285714 8.571429 30.571429 17.714286t36.285714 20 30.857143 17.142857q40 20 43.428571 30.285714 1.714286 4 1.714286 12z" /></svg>