<?xml version="1.0" standalone="no"?><!DOCTYPE svg PUBLIC "-//W3C//DTD SVG 1.1//EN" "http://www.w3.org/Graphics/SVG/1.1/DTD/svg11.dtd"><svg class="icon" width="200px" height="200.00px" viewBox="0 0 1024 1024" version="1.1" xmlns="http://www.w3.org/2000/svg"><path d="M1024 201.142857l0 621.714286q0 24-22.285714 33.714286-7.428571 2.857143-14.285714 2.857143-15.428571 0-25.714286-10.857143l-230.285714-230.285714 0 94.857143q0 68-48.285714 116.285714t-116.285714 48.285714l-402.285714 0q-68 0-116.285714-48.285714t-48.285714-116.285714l0-402.285714q0-68 48.285714-116.285714t116.285714-48.285714l402.285714 0q68 0 116.285714 48.285714t48.285714 116.285714l0 94.285714 230.285714-229.714286q10.285714-10.857143 25.714286-10.857143 6.857143 0 14.285714 2.857143 22.285714 9.714286 22.285714 33.714286z" /></svg>